<?xml version="1.0" encoding="utf-8"?>
<!-- Generator: Adobe Illustrator 28.1.0, SVG Export Plug-In . SVG Version: 6.00 Build 0)  -->
<svg version="1.1" id="Layer_1" xmlns="http://www.w3.org/2000/svg" xmlns:xlink="http://www.w3.org/1999/xlink" x="0px" y="0px"
	 viewBox="0 0 64 80" style="enable-background:new 0 0 64 80;" xml:space="preserve">
<path d="M59.2,13.5c-0.9-0.6-2.1-0.4-2.8,0.5c0,0,0,0,0,0L33.5,46.2c-0.7,0.8-2,0.9-2.8,0.2c-0.1-0.1-0.1-0.1-0.2-0.2L7.6,14
	c-0.6-0.9-1.8-1.3-2.7-0.7s-1.3,1.8-0.7,2.7c0,0.1,0.1,0.2,0.2,0.2l22.9,32.2l0.1,0.1c2.1,2.6,5.9,2.9,8.4,0.8
	c0.3-0.2,0.6-0.5,0.8-0.8l0.1-0.1l22.9-32.2C60.3,15.4,60.1,14.2,59.2,13.5z"/>
</svg>
